<svg width="40" height="40" viewBox="0 0 40 40" fill="none" xmlns="http://www.w3.org/2000/svg">
<mask id="mask0_1_27" style="mask-type:alpha" maskUnits="userSpaceOnUse" x="0" y="0" width="40" height="40">
<rect width="40" height="40" fill="#D9D9D9"/>
</mask>
<g mask="url(#mask0_1_27)">
<path d="M10.0279 21.7779L20 27.5279L29.9446 21.75L21.3888 16.8196V22.7779H18.6113V16.8196L10.0279 21.7779ZM18.6113 13.625V12.6112C17.4074 12.2871 16.4119 11.6321 15.625 10.6462C14.8381 9.66014 14.4446 8.51875 14.4446 7.22208C14.4446 5.68792 14.9871 4.37847 16.0721 3.29375C17.1574 2.20903 18.4676 1.66667 20.0029 1.66667C21.5379 1.66667 22.8471 2.20903 23.9304 3.29375C25.0138 4.37847 25.5554 5.68792 25.5554 7.22208C25.5554 8.51875 25.1619 9.66014 24.375 10.6462C23.5881 11.6321 22.5926 12.2871 21.3888 12.6112V13.625L33.6112 20.6667C34.051 20.9197 34.3924 21.2592 34.6354 21.685C34.8785 22.1108 35 22.5769 35 23.0833V26.9167C35 27.4231 34.8785 27.8892 34.6354 28.315C34.3924 28.7408 34.051 29.0803 33.6112 29.3333L21.3888 36.375C20.9476 36.625 20.4832 36.75 19.9954 36.75C19.5076 36.75 19.0463 36.625 18.6113 36.375L6.38875 29.3333C5.94903 29.0803 5.60764 28.7408 5.36458 28.315C5.12153 27.8892 5 27.4231 5 26.9167V23.0833C5 22.5769 5.12153 22.1108 5.36458 21.685C5.60764 21.2592 5.94903 20.9197 6.38875 20.6667L18.6113 13.625ZM18.6113 29.9029L7.77792 23.6804V26.9167L20 33.9721L32.2221 26.9167V23.6529L21.3888 29.9029C20.9476 30.1529 20.4832 30.2779 19.9954 30.2779C19.5076 30.2779 19.0463 30.1529 18.6113 29.9029ZM19.9967 10C20.7675 10 21.4237 9.73028 21.9654 9.19083C22.5071 8.65139 22.7779 7.99625 22.7779 7.22542C22.7779 6.45486 22.5082 5.79875 21.9688 5.25708C21.429 4.71542 20.7739 4.44458 20.0033 4.44458C19.2325 4.44458 18.5763 4.71431 18.0346 5.25375C17.4929 5.79319 17.2221 6.44819 17.2221 7.21875C17.2221 7.98958 17.4918 8.64583 18.0312 9.1875C18.571 9.72917 19.2261 10 19.9967 10Z" fill="#D9D9D9"/>
</g>
</svg>
